<?xml version="1.0" encoding="UTF-8"?>
<!--Generator: Apple Native CoreSVG 129-->
<!DOCTYPE svg
PUBLIC "-//W3C//DTD SVG 1.1//EN"
       "http://www.w3.org/Graphics/SVG/1.1/DTD/svg11.dtd">
<svg version="1.1" xmlns="http://www.w3.org/2000/svg" xmlns:xlink="http://www.w3.org/1999/xlink" width="3300" height="2200">
 <!--glyph: "uni100323.medium", point size: 100.000000, font version: "Version 16.0d9e1", template writer version: "8"-->
 <g id="Notes">
  <rect height="2200" id="artboard" style="fill:white;opacity:1" width="3300" x="0" y="0"/>
  <line id="" style="fill:none;stroke:black;opacity:1;stroke-width:0.5;" x1="263" x2="3036" y1="292" y2="292"/>
  <text style="stroke:none;fill:black;font-family:-apple-system,&quot;SF Pro Display&quot;,&quot;SF Pro Text&quot;,Helvetica,sans-serif;font-weight:bold;" transform="matrix(1 0 0 1 263 322)">Weight/Scale Variations</text>
  <text style="stroke:none;fill:black;font-family:-apple-system,&quot;SF Pro Display&quot;,&quot;SF Pro Text&quot;,Helvetica,sans-serif;text-anchor:middle;" transform="matrix(1 0 0 1 559.711 322)">Ultralight</text>
  <text style="stroke:none;fill:black;font-family:-apple-system,&quot;SF Pro Display&quot;,&quot;SF Pro Text&quot;,Helvetica,sans-serif;text-anchor:middle;" transform="matrix(1 0 0 1 856.422 322)">Thin</text>
  <text style="stroke:none;fill:black;font-family:-apple-system,&quot;SF Pro Display&quot;,&quot;SF Pro Text&quot;,Helvetica,sans-serif;text-anchor:middle;" transform="matrix(1 0 0 1 1153.13 322)">Light</text>
  <text style="stroke:none;fill:black;font-family:-apple-system,&quot;SF Pro Display&quot;,&quot;SF Pro Text&quot;,Helvetica,sans-serif;text-anchor:middle;" transform="matrix(1 0 0 1 1449.84 322)">Regular</text>
  <text style="stroke:none;fill:black;font-family:-apple-system,&quot;SF Pro Display&quot;,&quot;SF Pro Text&quot;,Helvetica,sans-serif;text-anchor:middle;" transform="matrix(1 0 0 1 1746.56 322)">Medium</text>
  <text style="stroke:none;fill:black;font-family:-apple-system,&quot;SF Pro Display&quot;,&quot;SF Pro Text&quot;,Helvetica,sans-serif;text-anchor:middle;" transform="matrix(1 0 0 1 2043.27 322)">Semibold</text>
  <text style="stroke:none;fill:black;font-family:-apple-system,&quot;SF Pro Display&quot;,&quot;SF Pro Text&quot;,Helvetica,sans-serif;text-anchor:middle;" transform="matrix(1 0 0 1 2339.98 322)">Bold</text>
  <text style="stroke:none;fill:black;font-family:-apple-system,&quot;SF Pro Display&quot;,&quot;SF Pro Text&quot;,Helvetica,sans-serif;text-anchor:middle;" transform="matrix(1 0 0 1 2636.69 322)">Heavy</text>
  <text style="stroke:none;fill:black;font-family:-apple-system,&quot;SF Pro Display&quot;,&quot;SF Pro Text&quot;,Helvetica,sans-serif;text-anchor:middle;" transform="matrix(1 0 0 1 2933.4 322)">Black</text>
  <line id="" style="fill:none;stroke:black;opacity:1;stroke-width:0.5;" x1="263" x2="3036" y1="1903" y2="1903"/>
  <g id="" transform="matrix(1 0 0 1 263 1933)">
   <path d="M 9.24805 0.830078 C 13.5547 0.830078 17.1387 -2.74414 17.1387 -7.05078 C 17.1387 -11.3574 13.5449 -14.9316 9.23828 -14.9316 C 4.94141 -14.9316 1.36719 -11.3574 1.36719 -7.05078 C 1.36719 -2.74414 4.95117 0.830078 9.24805 0.830078 Z M 9.24805 -0.654297 C 5.70312 -0.654297 2.87109 -3.49609 2.87109 -7.05078 C 2.87109 -10.6055 5.69336 -13.4473 9.23828 -13.4473 C 12.793 -13.4473 15.6348 -10.6055 15.6445 -7.05078 C 15.6543 -3.49609 12.8027 -0.654297 9.24805 -0.654297 Z M 9.22852 -3.62305 C 9.69727 -3.62305 9.9707 -3.93555 9.9707 -4.45312 L 9.9707 -6.31836 L 12.002 -6.31836 C 12.5 -6.31836 12.832 -6.57227 12.832 -7.04102 C 12.832 -7.51953 12.5195 -7.7832 12.002 -7.7832 L 9.9707 -7.7832 L 9.9707 -9.81445 C 9.9707 -10.332 9.69727 -10.6543 9.22852 -10.6543 C 8.75977 -10.6543 8.50586 -10.3125 8.50586 -9.81445 L 8.50586 -7.7832 L 6.49414 -7.7832 C 5.97656 -7.7832 5.64453 -7.51953 5.64453 -7.04102 C 5.64453 -6.57227 5.99609 -6.31836 6.49414 -6.31836 L 8.50586 -6.31836 L 8.50586 -4.45312 C 8.50586 -3.95508 8.75977 -3.62305 9.22852 -3.62305 Z"/>
  </g>
  <g id="" transform="matrix(1 0 0 1 281.506 1933)">
   <path d="M 11.709 2.91016 C 17.1582 2.91016 21.6699 -1.61133 21.6699 -7.05078 C 21.6699 -12.5 17.1484 -17.0117 11.6992 -17.0117 C 6.25977 -17.0117 1.74805 -12.5 1.74805 -7.05078 C 1.74805 -1.61133 6.26953 2.91016 11.709 2.91016 Z M 11.709 1.25 C 7.09961 1.25 3.41797 -2.44141 3.41797 -7.05078 C 3.41797 -11.6602 7.08984 -15.3516 11.6992 -15.3516 C 16.3086 -15.3516 20 -11.6602 20.0098 -7.05078 C 20.0195 -2.44141 16.3184 1.25 11.709 1.25 Z M 11.6797 -2.66602 C 12.207 -2.66602 12.5098 -3.01758 12.5098 -3.59375 L 12.5098 -6.23047 L 15.3223 -6.23047 C 15.8691 -6.23047 16.25 -6.51367 16.25 -7.03125 C 16.25 -7.55859 15.8887 -7.86133 15.3223 -7.86133 L 12.5098 -7.86133 L 12.5098 -10.6836 C 12.5098 -11.25 12.207 -11.6113 11.6797 -11.6113 C 11.1621 -11.6113 10.8789 -11.2305 10.8789 -10.6836 L 10.8789 -7.86133 L 8.07617 -7.86133 C 7.50977 -7.86133 7.13867 -7.55859 7.13867 -7.03125 C 7.13867 -6.51367 7.5293 -6.23047 8.07617 -6.23047 L 10.8789 -6.23047 L 10.8789 -3.59375 C 10.8789 -3.03711 11.1621 -2.66602 11.6797 -2.66602 Z"/>
  </g>
  <g id="" transform="matrix(1 0 0 1 304.924 1933)">
   <path d="M 14.9707 5.66406 C 21.9336 5.66406 27.6953 -0.0976562 27.6953 -7.05078 C 27.6953 -14.0137 21.9238 -19.7754 14.9609 -19.7754 C 8.00781 -19.7754 2.25586 -14.0137 2.25586 -7.05078 C 2.25586 -0.0976562 8.01758 5.66406 14.9707 5.66406 Z M 14.9707 3.84766 C 8.93555 3.84766 4.08203 -1.01562 4.08203 -7.05078 C 4.08203 -13.0957 8.92578 -17.9492 14.9609 -17.9492 C 21.0059 -17.9492 25.8594 -13.0957 25.8691 -7.05078 C 25.8789 -1.01562 21.0156 3.84766 14.9707 3.84766 Z M 14.9414 -1.38672 C 15.5176 -1.38672 15.8594 -1.77734 15.8594 -2.38281 L 15.8594 -6.13281 L 19.7754 -6.13281 C 20.3711 -6.13281 20.7812 -6.46484 20.7812 -7.02148 C 20.7812 -7.59766 20.3906 -7.93945 19.7754 -7.93945 L 15.8594 -7.93945 L 15.8594 -11.8652 C 15.8594 -12.4805 15.5176 -12.8711 14.9414 -12.8711 C 14.375 -12.8711 14.0527 -12.4609 14.0527 -11.8652 L 14.0527 -7.93945 L 10.1465 -7.93945 C 9.53125 -7.93945 9.13086 -7.59766 9.13086 -7.02148 C 9.13086 -6.46484 9.55078 -6.13281 10.1465 -6.13281 L 14.0527 -6.13281 L 14.0527 -2.38281 C 14.0527 -1.79688 14.375 -1.38672 14.9414 -1.38672 Z"/>
  </g>
  <text style="stroke:none;fill:black;font-family:-apple-system,&quot;SF Pro Display&quot;,&quot;SF Pro Text&quot;,Helvetica,sans-serif;font-weight:bold;" transform="matrix(1 0 0 1 263 1953)">Design Variations</text>
  <text style="stroke:none;fill:black;font-family:-apple-system,&quot;SF Pro Display&quot;,&quot;SF Pro Text&quot;,Helvetica,sans-serif;" transform="matrix(1 0 0 1 263 1971)">Symbols are supported in up to nine weights and three scales.</text>
  <text style="stroke:none;fill:black;font-family:-apple-system,&quot;SF Pro Display&quot;,&quot;SF Pro Text&quot;,Helvetica,sans-serif;" transform="matrix(1 0 0 1 263 1989)">For optimal layout with text and other symbols, vertically align</text>
  <text style="stroke:none;fill:black;font-family:-apple-system,&quot;SF Pro Display&quot;,&quot;SF Pro Text&quot;,Helvetica,sans-serif;" transform="matrix(1 0 0 1 263 2007)">symbols with the adjacent text.</text>
  <line id="" style="fill:none;stroke:#00AEEF;stroke-width:0.5;opacity:1.0;" x1="776" x2="776" y1="1919" y2="1933"/>
  <g id="" transform="matrix(1 0 0 1 776 1933)">
   <path d="M 3.31055 0.126953 C 3.82812 0.126953 4.08203 -0.0683594 4.26758 -0.605469 L 5.52734 -4.0625 L 11.2891 -4.0625 L 12.5488 -0.605469 C 12.7344 -0.0683594 12.9883 0.126953 13.4961 0.126953 C 14.0137 0.126953 14.3457 -0.185547 14.3457 -0.673828 C 14.3457 -0.839844 14.3164 -0.986328 14.2383 -1.20117 L 9.6582 -13.3887 C 9.43359 -13.9941 9.0332 -14.2871 8.4082 -14.2871 C 7.80273 -14.2871 7.39258 -13.9941 7.17773 -13.3984 L 2.59766 -1.19141 C 2.51953 -0.976562 2.49023 -0.830078 2.49023 -0.664062 C 2.49023 -0.175781 2.80273 0.126953 3.31055 0.126953 Z M 6.00586 -5.53711 L 8.37891 -12.1094 L 8.42773 -12.1094 L 10.8008 -5.53711 Z"/>
  </g>
  <line id="" style="fill:none;stroke:#00AEEF;stroke-width:0.5;opacity:1.0;" x1="792.836" x2="792.836" y1="1919" y2="1933"/>
  <text style="stroke:none;fill:black;font-family:-apple-system,&quot;SF Pro Display&quot;,&quot;SF Pro Text&quot;,Helvetica,sans-serif;font-weight:bold;" transform="matrix(1 0 0 1 776 1953)">Margins</text>
  <text style="stroke:none;fill:black;font-family:-apple-system,&quot;SF Pro Display&quot;,&quot;SF Pro Text&quot;,Helvetica,sans-serif;" transform="matrix(1 0 0 1 776 1971)">Leading and trailing margins on the left and right side of each symbol</text>
  <text style="stroke:none;fill:black;font-family:-apple-system,&quot;SF Pro Display&quot;,&quot;SF Pro Text&quot;,Helvetica,sans-serif;" transform="matrix(1 0 0 1 776 1989)">can be adjusted by modifying the x-location of the margin guidelines.</text>
  <text style="stroke:none;fill:black;font-family:-apple-system,&quot;SF Pro Display&quot;,&quot;SF Pro Text&quot;,Helvetica,sans-serif;" transform="matrix(1 0 0 1 776 2007)">Modifications are automatically applied proportionally to all</text>
  <text style="stroke:none;fill:black;font-family:-apple-system,&quot;SF Pro Display&quot;,&quot;SF Pro Text&quot;,Helvetica,sans-serif;" transform="matrix(1 0 0 1 776 2025)">scales and weights.</text>
  <g id="" transform="matrix(1 0 0 1 1289 1933)">
   <path d="M 2.8418 1.86523 L 4.54102 3.57422 C 5.40039 4.44336 6.38672 4.38477 7.31445 3.35938 L 17.4902 -7.85156 C 17.7539 -7.76367 18.0273 -7.7832 18.3398 -7.8418 L 19.4043 -8.03711 L 20.0684 -7.36328 L 20.0293 -6.80664 C 19.9902 -6.30859 20.1172 -5.92773 20.6055 -5.44922 L 21.3672 -4.70703 C 21.8457 -4.22852 22.4609 -4.19922 22.9297 -4.66797 L 25.8398 -7.58789 C 26.3086 -8.05664 26.2891 -8.65234 25.8105 -9.13086 L 25.0391 -9.89258 C 24.5605 -10.3711 24.1895 -10.5273 23.7109 -10.4883 L 23.1348 -10.4395 L 22.4902 -11.0742 L 22.7344 -12.1973 C 22.8613 -12.7637 22.7051 -13.2031 22.1191 -13.7891 L 19.9219 -15.9766 C 16.582 -19.2969 12.1484 -19.2188 9.25781 -16.3281 C 8.83789 -15.918 8.80859 -15.3418 9.04297 -14.9512 C 9.27734 -14.5898 9.73633 -14.3555 10.3809 -14.5215 C 11.8457 -14.8633 13.3691 -14.9219 14.7949 -13.9844 L 14.209 -12.5293 C 14.0137 -12.0508 13.9844 -11.6504 14.1113 -11.2891 L 3.04688 -0.898438 C 2.06055 0.0195312 1.98242 0.996094 2.8418 1.86523 Z M 10.752 -15.957 C 13.1836 -17.7344 16.4746 -17.4316 18.7012 -15.2051 L 21.1328 -12.793 C 21.3672 -12.5586 21.4062 -12.373 21.3379 -12.0312 L 21.0156 -10.5469 L 22.5195 -9.0625 L 23.5059 -9.12109 C 23.7598 -9.13086 23.8379 -9.11133 24.0332 -8.91602 L 24.6094 -8.33984 L 22.168 -5.89844 L 21.5918 -6.47461 C 21.3965 -6.66992 21.3672 -6.74805 21.377 -7.01172 L 21.4453 -7.98828 L 19.9512 -9.47266 L 18.4277 -9.21875 C 18.1055 -9.15039 17.959 -9.17969 17.7148 -9.41406 L 15.7129 -11.416 C 15.459 -11.6504 15.4297 -11.8164 15.5859 -12.1875 L 16.4648 -14.2773 C 14.9023 -15.7324 12.8711 -16.3574 10.8398 -15.7617 C 10.6836 -15.7227 10.625 -15.8496 10.752 -15.957 Z M 5.27344 2.30469 L 4.10156 1.14258 C 3.63281 0.683594 3.74023 0.341797 4.14062 -0.0195312 L 14.9512 -10.1953 L 16.416 -8.71094 L 6.42578 2.27539 C 6.07422 2.67578 5.74219 2.77344 5.27344 2.30469 Z"/>
  </g>
  <text style="stroke:none;fill:black;font-family:-apple-system,&quot;SF Pro Display&quot;,&quot;SF Pro Text&quot;,Helvetica,sans-serif;font-weight:bold;" transform="matrix(1 0 0 1 1289 1953)">Exporting</text>
  <text style="stroke:none;fill:black;font-family:-apple-system,&quot;SF Pro Display&quot;,&quot;SF Pro Text&quot;,Helvetica,sans-serif;" transform="matrix(1 0 0 1 1289 1971)">Symbols should be outlined when exporting to ensure the</text>
  <text style="stroke:none;fill:black;font-family:-apple-system,&quot;SF Pro Display&quot;,&quot;SF Pro Text&quot;,Helvetica,sans-serif;" transform="matrix(1 0 0 1 1289 1989)">design is preserved when submitting to Xcode.</text>
  <text id="template-version" style="stroke:none;fill:black;font-family:-apple-system,&quot;SF Pro Display&quot;,&quot;SF Pro Text&quot;,Helvetica,sans-serif;text-anchor:end;" transform="matrix(1 0 0 1 3036 1933)">Template v.2.0</text>
  <text style="stroke:none;fill:black;font-family:-apple-system,&quot;SF Pro Display&quot;,&quot;SF Pro Text&quot;,Helvetica,sans-serif;text-anchor:end;" transform="matrix(1 0 0 1 3036 1951)">Requires Xcode 12 or greater</text>
  <text style="stroke:none;fill:black;font-family:-apple-system,&quot;SF Pro Display&quot;,&quot;SF Pro Text&quot;,Helvetica,sans-serif;text-anchor:end;" transform="matrix(1 0 0 1 3036 1969)">Generated from arrow.triangle.2.circlepath.camera.fill</text>
  <text style="stroke:none;fill:black;font-family:-apple-system,&quot;SF Pro Display&quot;,&quot;SF Pro Text&quot;,Helvetica,sans-serif;text-anchor:end;" transform="matrix(1 0 0 1 3036 1987)">Typeset at 100 points</text>
  <text style="stroke:none;fill:black;font-family:-apple-system,&quot;SF Pro Display&quot;,&quot;SF Pro Text&quot;,Helvetica,sans-serif;" transform="matrix(1 0 0 1 263 726)">Small</text>
  <text style="stroke:none;fill:black;font-family:-apple-system,&quot;SF Pro Display&quot;,&quot;SF Pro Text&quot;,Helvetica,sans-serif;" transform="matrix(1 0 0 1 263 1156)">Medium</text>
  <text style="stroke:none;fill:black;font-family:-apple-system,&quot;SF Pro Display&quot;,&quot;SF Pro Text&quot;,Helvetica,sans-serif;" transform="matrix(1 0 0 1 263 1586)">Large</text>
 </g>
 <g id="Guides">
  <g id="H-reference" style="fill:#27AAE1;stroke:none;" transform="matrix(1 0 0 1 339 696)">
   <path d="M 0.976562 0 L 3.66211 0 L 12.9883 -24.4629 L 45.7031 -24.4629 L 55.0781 0 L 57.7148 0 L 30.6152 -70.459 L 28.125 -70.459 Z M 29.2969 -67.1387 L 29.3945 -67.1387 L 44.873 -26.709 L 13.8672 -26.709 Z"/>
  </g>
  <line id="Baseline-S" style="fill:none;stroke:#27AAE1;opacity:1;stroke-width:0.5;" x1="263" x2="3036" y1="696" y2="696"/>
  <line id="Capline-S" style="fill:none;stroke:#27AAE1;opacity:1;stroke-width:0.5;" x1="263" x2="3036" y1="625.541" y2="625.541"/>
  <g id="H-reference" style="fill:#27AAE1;stroke:none;" transform="matrix(1 0 0 1 339 1126)">
   <path d="M 0.976562 0 L 3.66211 0 L 12.9883 -24.4629 L 45.7031 -24.4629 L 55.0781 0 L 57.7148 0 L 30.6152 -70.459 L 28.125 -70.459 Z M 29.2969 -67.1387 L 29.3945 -67.1387 L 44.873 -26.709 L 13.8672 -26.709 Z"/>
  </g>
  <line id="Baseline-M" style="fill:none;stroke:#27AAE1;opacity:1;stroke-width:0.5;" x1="263" x2="3036" y1="1126" y2="1126"/>
  <line id="Capline-M" style="fill:none;stroke:#27AAE1;opacity:1;stroke-width:0.5;" x1="263" x2="3036" y1="1055.54" y2="1055.54"/>
  <g id="H-reference" style="fill:#27AAE1;stroke:none;" transform="matrix(1 0 0 1 339 1556)">
   <path d="M 0.976562 0 L 3.66211 0 L 12.9883 -24.4629 L 45.7031 -24.4629 L 55.0781 0 L 57.7148 0 L 30.6152 -70.459 L 28.125 -70.459 Z M 29.2969 -67.1387 L 29.3945 -67.1387 L 44.873 -26.709 L 13.8672 -26.709 Z"/>
  </g>
  <line id="Baseline-L" style="fill:none;stroke:#27AAE1;opacity:1;stroke-width:0.5;" x1="263" x2="3036" y1="1556" y2="1556"/>
  <line id="Capline-L" style="fill:none;stroke:#27AAE1;opacity:1;stroke-width:0.5;" x1="263" x2="3036" y1="1485.54" y2="1485.54"/>
  <line id="left-margin" style="fill:none;stroke:#00AEEF;stroke-width:0.5;opacity:1.0;" x1="1377.43" x2="1377.43" y1="1030.79" y2="1150.12"/>
  <line id="right-margin" style="fill:none;stroke:#00AEEF;stroke-width:0.5;opacity:1.0;" x1="1522.26" x2="1522.26" y1="1030.79" y2="1150.12"/>
 </g>
 <g id="Symbols">
  <g id="Black-L" transform="matrix(1 0 0 1 2837.57 1556)">
   <path d="M 39.9902 26.5137 L 151.66 26.5137 C 166.895 26.5137 175.586 17.8711 175.586 2.68555 L 175.586 -63.8184 C 175.586 -79.0527 166.895 -87.6465 151.66 -87.6465 L 138.77 -87.6465 C 133.936 -87.6465 132.031 -88.2324 128.369 -91.5039 L 123.584 -95.8984 C 119.922 -99.2676 116.26 -100.635 110.059 -100.635 L 81.5918 -100.635 C 75.3418 -100.635 71.7285 -99.2676 68.0176 -95.8984 L 63.2324 -91.5039 C 59.6191 -88.2324 57.7148 -87.6465 52.8809 -87.6465 L 39.9902 -87.6465 C 24.7559 -87.6465 16.0645 -79.0527 16.0645 -63.8184 L 16.0645 2.68555 C 16.0645 17.8711 24.7559 26.5137 39.9902 26.5137 Z M 75.0977 -53.418 C 73.1445 -56.4941 73.8281 -60.6445 77.9785 -63.4766 C 82.5684 -66.6992 88.5742 -68.6035 95.8496 -68.6035 C 112.939 -68.6035 126.66 -57.2266 129.834 -41.3574 L 134.326 -41.3574 C 138.33 -41.3574 139.746 -37.4023 137.305 -34.1797 L 126.904 -20.5078 C 124.707 -17.6758 120.85 -17.6758 118.701 -20.5078 L 108.203 -34.1797 C 105.713 -37.3047 107.129 -41.3574 111.084 -41.3574 L 115.234 -41.3574 C 112.305 -49.1211 104.883 -54.4922 95.8496 -54.4922 C 92.041 -54.4922 88.623 -53.4668 85.2539 -51.2695 C 81.0547 -48.584 77.1973 -50.1953 75.0977 -53.418 Z M 54.2969 -34.1309 L 64.6973 -47.8027 C 66.8945 -50.6348 70.752 -50.5859 72.9004 -47.8027 L 83.4473 -34.1309 C 85.8887 -30.957 84.4727 -26.9043 80.5176 -26.9043 L 76.5137 -26.9043 C 79.4434 -19.1406 86.8652 -13.7695 95.8984 -13.7695 C 99.707 -13.7695 103.076 -14.8438 106.445 -17.041 C 110.693 -19.6777 114.551 -18.1152 116.602 -14.8926 C 118.555 -11.7676 117.92 -7.61719 113.77 -4.83398 C 109.18 -1.61133 103.125 0.292969 95.8984 0.292969 C 78.8086 0.292969 65.0879 -11.0352 61.8652 -26.9043 L 57.2754 -26.9043 C 53.3203 -26.9043 51.8555 -30.9082 54.2969 -34.1309 Z"/>
  </g>
  <g id="Heavy-L" transform="matrix(1 0 0 1 2541.62 1556)">
   <path d="M 38.8184 25.4883 L 151.318 25.4883 C 165.918 25.4883 174.072 17.4316 174.072 2.88086 L 174.072 -63.5742 C 174.072 -78.125 165.918 -86.1816 151.318 -86.1816 L 137.109 -86.1816 C 132.275 -86.1816 130.469 -86.8164 127.002 -90.0879 L 122.119 -94.8242 C 118.506 -98.2422 115.039 -99.6582 108.789 -99.6582 L 81.1523 -99.6582 C 74.9023 -99.6582 71.4355 -98.2422 67.8711 -94.8242 L 62.9883 -90.0879 C 59.4727 -86.8164 57.666 -86.1816 52.832 -86.1816 L 38.8184 -86.1816 C 24.2188 -86.1816 16.0645 -78.125 16.0645 -63.5742 L 16.0645 2.88086 C 16.0645 17.4316 24.2188 25.4883 38.8184 25.4883 Z M 73.8281 -53.3203 C 71.9238 -56.1523 72.5586 -60.0098 76.3184 -62.6465 C 81.1523 -66.2598 87.6465 -68.4082 95.0684 -68.4082 C 112.305 -68.4082 126.074 -56.9336 129.199 -40.6738 L 134.18 -40.6738 C 137.842 -40.6738 139.062 -37.0605 136.865 -34.1309 L 126.66 -20.4102 C 124.609 -17.7246 120.996 -17.7246 118.945 -20.4102 L 108.643 -34.1309 C 106.396 -37.0117 107.617 -40.6738 111.279 -40.6738 L 116.113 -40.6738 C 113.281 -49.4141 105.078 -55.6152 95.0684 -55.6152 C 90.6738 -55.6152 86.9141 -54.3457 83.1543 -51.6602 C 79.3945 -49.2188 75.8789 -50.3906 73.8281 -53.3203 Z M 53.2227 -33.6426 L 63.4277 -47.3633 C 65.4785 -50.0977 69.043 -50.0488 71.0938 -47.3633 L 81.3965 -33.6426 C 83.6426 -30.7617 82.4219 -27.0996 78.8086 -27.0996 L 74.1211 -27.0996 C 76.9531 -18.3594 85.1562 -12.1582 95.166 -12.1582 C 99.5605 -12.1582 103.32 -13.4766 107.08 -16.1133 C 110.84 -18.5547 114.355 -17.4316 116.357 -14.502 C 118.311 -11.6211 117.676 -7.76367 113.916 -5.17578 C 109.082 -1.5625 102.588 0.585938 95.166 0.585938 C 77.9297 0.585938 64.1602 -10.8887 61.0352 -27.0996 L 55.8594 -27.0996 C 52.2461 -27.0996 51.0254 -30.7129 53.2227 -33.6426 Z"/>
  </g>
  <g id="Bold-L" transform="matrix(1 0 0 1 2245.76 1556)">
   <path d="M 37.5 24.3652 L 150.928 24.3652 C 164.844 24.3652 172.363 16.8945 172.363 3.07617 L 172.363 -63.2324 C 172.363 -77.0508 164.844 -84.5703 150.928 -84.5703 L 135.303 -84.5703 C 130.371 -84.5703 128.711 -85.2539 125.391 -88.5254 L 120.41 -93.6523 C 116.943 -97.1191 113.623 -98.6328 107.324 -98.6328 L 80.7129 -98.6328 C 74.4141 -98.6328 71.0938 -97.1191 67.627 -93.6523 L 62.6465 -88.5254 C 59.375 -85.3027 57.666 -84.5703 52.7344 -84.5703 L 37.5 -84.5703 C 23.6328 -84.5703 16.0645 -77.0508 16.0645 -63.2324 L 16.0645 3.07617 C 16.0645 16.8945 23.6328 24.3652 37.5 24.3652 Z M 72.4121 -53.2227 C 70.5078 -55.7617 71.1426 -59.2285 74.5117 -61.7188 C 79.5898 -65.7227 86.6211 -68.1641 94.2383 -68.1641 C 111.572 -68.1641 125.439 -56.543 128.516 -39.8926 L 134.033 -39.8926 C 137.305 -39.8926 138.281 -36.7188 136.377 -34.082 L 126.367 -20.3613 C 124.414 -17.7246 121.191 -17.8223 119.287 -20.3613 L 109.131 -34.082 C 107.178 -36.6699 108.203 -39.8926 111.475 -39.8926 L 117.139 -39.8926 C 114.307 -49.7559 105.273 -56.8848 94.2383 -56.8848 C 89.1602 -56.8848 84.9609 -55.3711 80.7617 -52.1484 C 77.5391 -49.9512 74.4629 -50.6348 72.4121 -53.2227 Z M 51.9531 -33.1543 L 61.9629 -46.875 C 63.916 -49.5117 67.1387 -49.4629 69.043 -46.875 L 79.1992 -33.1543 C 81.1523 -30.5664 80.127 -27.3438 76.8555 -27.3438 L 71.4355 -27.3438 C 74.2188 -17.4805 83.3008 -10.3516 94.2871 -10.3516 C 99.3652 -10.3516 103.564 -11.9141 107.764 -15.1367 C 110.986 -17.2852 114.16 -16.6504 116.113 -14.0137 C 118.066 -11.4746 117.432 -7.95898 114.062 -5.56641 C 108.936 -1.51367 101.904 0.927734 94.2871 0.927734 C 76.9531 0.927734 63.1348 -10.6934 60.0586 -27.3438 L 54.2969 -27.3438 C 51.0254 -27.3438 50.0488 -30.5176 51.9531 -33.1543 Z"/>
  </g>
  <g id="Semibold-L" transform="matrix(1 0 0 1 1949.64 1556)">
   <path d="M 36.6211 23.584 L 150.635 23.584 C 164.062 23.584 171.191 16.5039 171.191 3.17383 L 171.191 -63.0371 C 171.191 -76.3672 164.062 -83.4473 150.635 -83.4473 L 134.033 -83.4473 C 129.102 -83.4473 127.49 -84.1797 124.316 -87.5 L 119.238 -92.8223 C 115.869 -96.2891 112.646 -97.9004 106.348 -97.9004 L 80.4199 -97.9004 C 74.0723 -97.9004 70.8496 -96.2891 67.4805 -92.8223 L 62.4512 -87.5 C 59.3262 -84.2285 57.666 -83.4473 52.7344 -83.4473 L 36.6211 -83.4473 C 23.1934 -83.4473 16.0645 -76.3672 16.0645 -63.0371 L 16.0645 3.17383 C 16.0645 16.5039 23.1934 23.584 36.6211 23.584 Z M 71.4355 -53.1738 C 69.5312 -55.5176 70.166 -58.7402 73.2422 -61.084 C 78.5156 -65.3809 85.8887 -68.0176 93.6523 -68.0176 C 111.133 -68.0176 125 -56.2988 128.027 -39.4043 L 133.936 -39.4043 C 136.963 -39.4043 137.744 -36.4746 136.035 -34.082 L 126.172 -20.3125 C 124.316 -17.7734 121.289 -17.8711 119.482 -20.3125 L 109.521 -34.082 C 107.715 -36.4258 108.594 -39.4043 111.621 -39.4043 L 117.822 -39.4043 C 115.039 -50 105.42 -57.7148 93.6523 -57.7148 C 88.1348 -57.7148 83.5938 -56.0547 79.1016 -52.4414 C 76.2695 -50.4395 73.4375 -50.7812 71.4355 -53.1738 Z M 51.123 -32.8125 L 60.9863 -46.582 C 62.8418 -49.1211 65.8691 -49.0234 67.6758 -46.582 L 77.6367 -32.8125 C 79.3945 -30.4199 78.5156 -27.4902 75.5371 -27.4902 L 69.5801 -27.4902 C 72.3145 -16.8945 81.9824 -9.13086 93.75 -9.13086 C 99.2676 -9.13086 103.711 -10.8887 108.252 -14.4531 C 111.084 -16.4062 113.965 -16.1133 115.918 -13.7207 C 117.871 -11.377 117.236 -8.10547 114.16 -5.81055 C 108.887 -1.46484 101.465 1.12305 93.75 1.12305 C 76.2695 1.12305 62.4023 -10.5957 59.375 -27.4902 L 53.2227 -27.4902 C 50.1953 -27.4902 49.3652 -30.3711 51.123 -32.8125 Z"/>
  </g>
  <g id="Medium-L" transform="matrix(1 0 0 1 1653.37 1556)">
   <path d="M 35.9375 22.998 L 150.439 22.998 C 163.477 22.998 170.312 16.2109 170.312 3.27148 L 170.312 -62.8906 C 170.312 -75.8301 163.477 -82.6172 150.439 -82.6172 L 133.105 -82.6172 C 128.125 -82.6172 126.562 -83.3496 123.486 -86.6699 L 118.359 -92.1875 C 115.088 -95.7031 111.963 -97.3145 105.615 -97.3145 L 80.1758 -97.3145 C 73.8281 -97.3145 70.7031 -95.7031 67.3828 -92.1875 L 62.3047 -86.6699 C 59.2285 -83.3984 57.6172 -82.6172 52.6855 -82.6172 L 35.9375 -82.6172 C 22.9004 -82.6172 16.0645 -75.8301 16.0645 -62.8906 L 16.0645 3.27148 C 16.0645 16.2109 22.9004 22.998 35.9375 22.998 Z M 70.7031 -53.125 C 68.7988 -55.3223 69.3848 -58.3496 72.2656 -60.5957 C 77.6855 -65.1367 85.3516 -67.9199 93.2129 -67.9199 C 110.742 -67.9199 124.658 -56.1035 127.637 -38.9648 L 133.838 -38.9648 C 136.67 -38.9648 137.354 -36.3281 135.742 -34.082 L 126.025 -20.2637 C 124.219 -17.7734 121.338 -17.8711 119.629 -20.2637 L 109.766 -34.082 C 108.105 -36.2793 108.887 -38.9648 111.719 -38.9648 L 118.311 -38.9648 C 115.576 -50.1465 105.518 -58.3984 93.2129 -58.3984 C 87.3535 -58.3984 82.6172 -56.543 77.8809 -52.6855 C 75.3418 -50.8301 72.6562 -50.8789 70.7031 -53.125 Z M 50.4883 -32.5195 L 60.2051 -46.3379 C 62.0117 -48.7793 64.8926 -48.6816 66.6016 -46.3379 L 76.4648 -32.5195 C 78.125 -30.3223 77.3438 -27.5879 74.5117 -27.5879 L 68.1641 -27.5879 C 70.8984 -16.4551 81.0059 -8.20312 93.3105 -8.20312 C 99.1699 -8.20312 103.857 -10.0586 108.643 -13.916 C 111.182 -15.7715 113.867 -15.6738 115.771 -13.4766 C 117.725 -11.2793 117.09 -8.20312 114.209 -6.00586 C 108.789 -1.46484 101.123 1.31836 93.3105 1.31836 C 75.7324 1.31836 61.8652 -10.498 58.8379 -27.5879 L 52.3926 -27.5879 C 49.5605 -27.5879 48.877 -30.2734 50.4883 -32.5195 Z"/>
  </g>
  <g id="Regular-L" transform="matrix(1 0 0 1 1357.24 1556)">
   <path d="M 35.0586 22.2168 L 150.146 22.2168 C 162.744 22.2168 169.141 15.8691 169.141 3.41797 L 169.141 -62.6953 C 169.141 -75.0977 162.744 -81.4941 150.146 -81.4941 L 131.836 -81.4941 C 126.807 -81.4941 125.391 -82.2754 122.412 -85.5957 L 117.236 -91.4062 C 114.014 -94.9219 110.986 -96.582 104.639 -96.582 L 79.834 -96.582 C 73.4863 -96.582 70.459 -94.9219 67.2363 -91.4062 L 62.0605 -85.5957 C 59.1797 -82.373 57.6172 -81.4941 52.6367 -81.4941 L 35.0586 -81.4941 C 22.4609 -81.4941 16.0645 -75.0977 16.0645 -62.6953 L 16.0645 3.41797 C 16.0645 15.8691 22.4609 22.2168 35.0586 22.2168 Z M 69.7266 -53.0762 C 67.8223 -55.0293 68.4082 -57.8613 71.0449 -59.9609 C 76.6113 -64.7949 84.668 -67.7734 92.627 -67.7734 C 110.254 -67.7734 124.219 -55.8594 127.148 -38.4277 L 133.74 -38.4277 C 136.328 -38.4277 136.816 -36.084 135.4 -34.0332 L 125.781 -20.2148 C 124.121 -17.8223 121.484 -17.9199 119.873 -20.2148 L 110.107 -34.0332 C 108.643 -36.0352 109.277 -38.4277 111.865 -38.4277 L 118.994 -38.4277 C 116.309 -50.3906 105.664 -59.2285 92.627 -59.2285 C 86.3281 -59.2285 81.25 -57.2266 76.2695 -52.9785 C 74.0723 -51.3184 71.6797 -51.0742 69.7266 -53.0762 Z M 49.6582 -32.1777 L 59.2285 -45.9961 C 60.9375 -48.3887 63.5742 -48.291 65.1855 -45.9961 L 74.9512 -32.1777 C 76.416 -30.1758 75.7324 -27.7832 73.1934 -27.7832 L 66.3574 -27.7832 C 69.043 -15.8691 79.6875 -6.98242 92.7246 -6.98242 C 99.0234 -6.98242 104.004 -9.0332 109.082 -13.2324 C 111.279 -14.8926 113.721 -15.1855 115.576 -13.1348 C 117.529 -11.1816 116.895 -8.34961 114.307 -6.25 C 108.74 -1.41602 100.684 1.5625 92.7246 1.5625 C 75.0977 1.5625 61.1328 -10.3516 58.2031 -27.7832 L 51.3184 -27.7832 C 48.7305 -27.7832 48.2422 -30.127 49.6582 -32.1777 Z"/>
  </g>
  <g id="Light-L" transform="matrix(1 0 0 1 1061.63 1556)">
   <path d="M 34.0332 21.4355 L 148.975 21.4355 C 160.84 21.4355 166.943 15.2344 166.943 3.56445 L 166.943 -62.6953 C 166.943 -74.4141 160.84 -80.5664 148.975 -80.5664 L 130.273 -80.5664 C 125.146 -80.5664 123.779 -81.1035 120.654 -84.668 L 115.283 -90.625 C 112.012 -94.2383 109.229 -95.6055 103.076 -95.6055 L 78.7598 -95.6055 C 72.6074 -95.6055 69.8242 -94.2383 66.5039 -90.625 L 61.1816 -84.668 C 58.1055 -81.25 56.5918 -80.5664 51.5137 -80.5664 L 34.0332 -80.5664 C 22.168 -80.5664 16.0645 -74.4141 16.0645 -62.6953 L 16.0645 3.56445 C 16.0645 15.2344 22.168 21.4355 34.0332 21.4355 Z M 68.457 -52.5391 C 66.9922 -54.0039 67.3828 -56.2012 69.4336 -57.959 C 75.1953 -63.2324 83.3984 -66.4551 91.5039 -66.4551 C 108.691 -66.4551 122.314 -54.7363 125.098 -37.4512 L 132.031 -37.4512 C 134.18 -37.4512 134.57 -35.6445 133.398 -33.9355 L 124.414 -20.6543 C 122.9 -18.4082 120.557 -18.4082 119.043 -20.6543 L 109.961 -33.9355 C 108.789 -35.5469 109.326 -37.4512 111.426 -37.4512 L 118.75 -37.4512 C 116.26 -50.3906 105.176 -59.8633 91.5039 -59.8633 C 84.9609 -59.8633 79.2969 -57.666 73.5352 -52.6367 C 71.7773 -51.2207 69.9707 -51.0254 68.457 -52.5391 Z M 49.5117 -31.4453 L 58.4473 -44.7266 C 60.0098 -46.9727 62.3047 -46.9238 63.8672 -44.7266 L 72.9004 -31.4453 C 74.1211 -29.7852 73.5352 -27.8809 71.4844 -27.8809 L 64.3066 -27.8809 C 66.8457 -14.9414 77.8809 -5.51758 91.5527 -5.51758 C 98.1445 -5.51758 103.76 -7.71484 109.57 -12.7441 C 111.328 -14.1602 113.135 -14.3555 114.6 -12.8418 C 116.064 -11.3281 115.723 -9.13086 113.672 -7.42188 C 107.91 -2.14844 99.707 1.07422 91.5527 1.07422 C 74.4141 1.07422 60.7422 -10.6445 58.0078 -27.8809 L 50.8789 -27.8809 C 48.7305 -27.8809 48.3398 -29.6875 49.5117 -31.4453 Z"/>
  </g>
  <g id="Thin-L" transform="matrix(1 0 0 1 766.383 1556)">
   <path d="M 32.666 20.3613 L 147.412 20.3613 C 158.301 20.3613 164.014 14.4531 164.014 3.75977 L 164.014 -62.7441 C 164.014 -73.4863 158.301 -79.3457 147.412 -79.3457 L 128.223 -79.3457 C 122.949 -79.3457 121.729 -79.5898 118.311 -83.3984 L 112.744 -89.5996 C 109.326 -93.3105 106.934 -94.3359 100.977 -94.3359 L 77.3438 -94.3359 C 71.3867 -94.3359 68.9453 -93.3105 65.5273 -89.5996 L 59.9609 -83.3984 C 56.7383 -79.7363 55.2734 -79.3457 50.0488 -79.3457 L 32.666 -79.3457 C 21.7773 -79.3457 16.0645 -73.4863 16.0645 -62.7441 L 16.0645 3.75977 C 16.0645 14.4531 21.7773 20.3613 32.666 20.3613 Z M 66.7969 -51.8555 C 65.918 -52.6855 65.9668 -54.0039 67.2852 -55.2734 C 73.291 -61.1328 81.7383 -64.7461 90.0391 -64.7461 C 106.592 -64.7461 119.824 -53.2715 122.363 -36.1816 L 129.834 -36.1816 C 131.348 -36.1816 131.543 -35.1074 130.713 -33.7891 L 122.607 -21.1914 C 121.289 -19.1406 119.385 -19.0918 118.018 -21.1914 L 109.814 -33.7891 C 108.984 -34.9609 109.424 -36.1816 110.889 -36.1816 L 118.457 -36.1816 C 116.162 -50.4395 104.59 -60.6934 90.0391 -60.6934 C 83.1543 -60.6934 76.6602 -58.252 69.9219 -52.1484 C 68.75 -51.0742 67.7246 -50.9766 66.7969 -51.8555 Z M 49.3164 -30.4688 L 57.4219 -43.0176 C 58.7891 -45.1172 60.6445 -45.166 62.0605 -43.0176 L 70.2637 -30.4688 C 71.0938 -29.2969 70.6543 -28.0762 69.1895 -28.0762 L 61.6699 -28.0762 C 63.9648 -13.7695 75.4883 -3.51562 90.0391 -3.51562 C 96.9727 -3.51562 103.418 -5.95703 110.156 -12.1094 C 111.377 -13.1836 112.354 -13.2812 113.33 -12.4023 C 114.209 -11.5723 114.111 -10.2051 112.793 -8.98438 C 106.836 -3.07617 98.3887 0.488281 90.0391 0.488281 C 73.4863 0.488281 60.2539 -10.9863 57.7148 -28.0762 L 50.2441 -28.0762 C 48.7305 -28.0762 48.5352 -29.1504 49.3164 -30.4688 Z"/>
  </g>
  <g id="Ultralight-L" transform="matrix(1 0 0 1 470.429 1556)">
   <path d="M 31.9824 19.7754 L 146.582 19.7754 C 156.982 19.7754 162.5 14.0625 162.5 3.85742 L 162.5 -62.793 C 162.5 -72.998 156.982 -78.7109 146.582 -78.7109 L 127.197 -78.7109 C 121.826 -78.7109 120.654 -78.8086 117.139 -82.7148 L 111.475 -89.0625 C 107.959 -92.8711 105.713 -93.6523 99.9023 -93.6523 L 76.5625 -93.6523 C 70.752 -93.6523 68.5059 -92.8711 65.0391 -89.0625 L 59.375 -82.7148 C 56.0059 -78.9551 54.5898 -78.7109 49.3164 -78.7109 L 31.9824 -78.7109 C 21.582 -78.7109 16.0645 -72.998 16.0645 -62.793 L 16.0645 3.85742 C 16.0645 14.0625 21.582 19.7754 31.9824 19.7754 Z M 65.918 -51.5137 C 65.332 -52.002 65.2832 -52.9297 66.2109 -53.9062 C 72.3145 -60.1074 80.8594 -63.8672 89.3066 -63.8672 C 105.566 -63.8672 118.555 -52.5391 120.996 -35.498 L 128.662 -35.498 C 129.883 -35.498 130.029 -34.8145 129.346 -33.6914 L 121.68 -21.4844 C 120.459 -19.5312 118.799 -19.4336 117.48 -21.4844 L 109.717 -33.6914 C 109.082 -34.6191 109.473 -35.498 110.596 -35.498 L 118.311 -35.498 C 116.113 -50.4883 104.297 -61.1328 89.3066 -61.1328 C 82.2266 -61.1328 75.3418 -58.5938 68.1152 -51.8555 C 67.1875 -50.9766 66.6016 -50.9277 65.918 -51.5137 Z M 49.2676 -29.9805 L 56.9336 -42.1875 C 58.1543 -44.1406 59.8145 -44.2383 61.1328 -42.1875 L 68.8965 -29.9805 C 69.5312 -29.0527 69.1406 -28.1738 68.0176 -28.1738 L 60.3027 -28.1738 C 62.5 -13.1836 74.2676 -2.53906 89.2578 -2.53906 C 96.3867 -2.53906 103.223 -5.07812 110.498 -11.7676 C 111.377 -12.6953 111.963 -12.7441 112.646 -12.1582 C 113.232 -11.6699 113.33 -10.7422 112.354 -9.76562 C 106.299 -3.56445 97.7051 0.195312 89.2578 0.195312 C 73.0469 0.195312 60.0098 -11.1328 57.5684 -28.1738 L 49.9512 -28.1738 C 48.7305 -28.1738 48.584 -28.8574 49.2676 -29.9805 Z"/>
  </g>
  <g id="Black-M" transform="matrix(1 0 0 1 2858.72 1126)">
   <path d="M 31.9824 13.5742 L 117.383 13.5742 C 129.639 13.5742 136.914 6.29883 136.914 -5.95703 L 136.914 -57.8125 C 136.914 -70.0684 129.639 -77.3438 117.383 -77.3438 L 108.936 -77.3438 C 105.176 -77.3438 103.613 -77.5391 100.488 -80.1758 L 96.7773 -83.252 C 93.7012 -85.8887 90.8691 -86.6699 86.1816 -86.6699 L 63.1836 -86.6699 C 58.4961 -86.6699 55.6641 -85.8887 52.5879 -83.252 L 48.9258 -80.1758 C 45.752 -77.5391 44.1895 -77.3438 40.4785 -77.3438 L 31.9824 -77.3438 C 19.7266 -77.3438 12.4512 -70.0684 12.4512 -57.8125 L 12.4512 -5.95703 C 12.4512 6.29883 19.7266 13.5742 31.9824 13.5742 Z M 59.2285 -49.1211 C 57.959 -51.6602 58.3984 -54.9805 61.7676 -57.1289 C 65.0879 -59.375 69.2383 -60.6445 74.707 -60.6445 C 87.5 -60.6445 97.9004 -52.1484 100.391 -40.3809 L 103.418 -40.3809 C 106.641 -40.3809 108.008 -37.0605 105.908 -34.375 L 97.9492 -24.1211 C 96.1914 -21.875 93.0176 -21.8262 91.1621 -24.1211 L 83.1543 -34.375 C 81.1035 -37.0117 82.3242 -40.3809 85.5957 -40.3809 L 87.9395 -40.3809 C 85.7422 -45.6543 80.8105 -49.0234 74.707 -49.0234 C 72.4121 -49.0234 69.9707 -48.3887 67.4805 -46.9238 C 63.7695 -44.6777 60.6445 -46.5332 59.2285 -49.1211 Z M 43.5059 -34.5703 L 51.4648 -44.873 C 53.2227 -47.1191 56.3965 -47.168 58.252 -44.873 L 66.2598 -34.5703 C 68.3594 -31.9824 67.0898 -28.5645 63.8184 -28.5645 L 61.4258 -28.5645 C 63.6719 -23.3398 68.6035 -19.9707 74.707 -19.9707 C 77.002 -19.9707 79.4434 -20.6055 81.9336 -22.0703 C 85.6445 -24.3164 88.7695 -22.4609 90.1855 -19.8242 C 91.4551 -17.334 91.0156 -14.0137 87.6465 -11.8164 C 84.3262 -9.61914 80.1758 -8.34961 74.707 -8.34961 C 61.9141 -8.34961 51.5137 -16.8457 49.0234 -28.5645 L 45.9961 -28.5645 C 42.7734 -28.5645 41.4062 -31.8848 43.5059 -34.5703 Z"/>
  </g>
  <g id="Heavy-M" transform="matrix(1 0 0 1 2562.54 1126)">
   <path d="M 31.0059 12.6465 L 117.285 12.6465 C 129.053 12.6465 135.84 5.9082 135.84 -5.81055 L 135.84 -57.4707 C 135.84 -69.2383 129.053 -75.9766 117.285 -75.9766 L 107.52 -75.9766 C 103.76 -75.9766 102.295 -76.3184 99.3652 -78.9062 L 95.6543 -82.3242 C 92.7246 -84.9609 89.9414 -85.8887 85.2051 -85.8887 L 63.0371 -85.8887 C 58.252 -85.8887 55.4688 -84.9609 52.5879 -82.3242 L 48.8281 -78.9062 C 45.9473 -76.3184 44.4336 -75.9766 40.6738 -75.9766 L 31.0059 -75.9766 C 19.2383 -75.9766 12.4512 -69.2383 12.4512 -57.4707 L 12.4512 -5.81055 C 12.4512 5.9082 19.2383 12.6465 31.0059 12.6465 Z M 58.2031 -49.1699 C 56.7871 -51.5137 57.2754 -54.6387 60.4004 -56.7383 C 63.9648 -59.2773 68.5547 -60.791 74.1699 -60.791 C 87.2559 -60.791 97.7539 -52.0508 100.244 -39.8926 L 103.662 -39.8926 C 106.689 -39.8926 107.812 -36.8652 105.957 -34.375 L 98.0469 -23.9258 C 96.3379 -21.7773 93.4082 -21.7285 91.6992 -23.9258 L 83.6914 -34.375 C 81.7871 -36.8164 82.9102 -39.8926 85.9375 -39.8926 L 89.0137 -39.8926 C 86.7676 -45.9473 81.1035 -50.0488 74.1699 -50.0488 C 71.2891 -50.0488 68.6035 -49.2676 65.8691 -47.4609 C 62.5977 -45.4102 59.668 -46.7285 58.2031 -49.1699 Z M 42.334 -34.2773 L 50.2441 -44.7266 C 51.9043 -46.875 54.8828 -46.9238 56.5918 -44.7266 L 64.5996 -34.2773 C 66.5039 -31.8848 65.3809 -28.7598 62.3535 -28.7598 L 59.3262 -28.7598 C 61.5723 -22.7051 67.2363 -18.6035 74.1699 -18.6035 C 77.0508 -18.6035 79.7363 -19.4336 82.4707 -21.1914 C 85.7422 -23.291 88.6719 -21.9238 90.1855 -19.4824 C 91.5527 -17.1387 91.1133 -14.0137 87.9395 -11.9141 C 84.4238 -9.375 79.7852 -7.91016 74.1699 -7.91016 C 61.1328 -7.91016 50.5859 -16.6016 48.1445 -28.7598 L 44.5801 -28.7598 C 41.5527 -28.7598 40.4297 -31.7871 42.334 -34.2773 Z"/>
  </g>
  <g id="Bold-M" transform="matrix(1 0 0 1 2266.44 1126)">
   <path d="M 29.8828 11.6699 L 117.236 11.6699 C 128.418 11.6699 134.619 5.46875 134.619 -5.66406 L 134.619 -57.1289 C 134.619 -68.3105 128.418 -74.4629 117.236 -74.4629 L 106.006 -74.4629 C 102.197 -74.4629 100.83 -74.9512 98.1445 -77.4902 L 94.3848 -81.25 C 91.6016 -83.8867 88.916 -85.0098 84.082 -85.0098 L 62.8418 -85.0098 C 58.0078 -85.0098 55.3223 -83.8867 52.5391 -81.25 L 48.7793 -77.4902 C 46.0938 -74.9512 44.7266 -74.4629 40.9668 -74.4629 L 29.8828 -74.4629 C 18.6523 -74.4629 12.4512 -68.3105 12.4512 -57.1289 L 12.4512 -5.66406 C 12.4512 5.46875 18.6523 11.6699 29.8828 11.6699 Z M 56.9824 -49.2676 C 55.5176 -51.416 56.0059 -54.3457 58.8379 -56.3477 C 62.6465 -59.1797 67.7734 -60.9375 73.5352 -60.9375 C 86.9141 -60.9375 97.6074 -52.002 100.049 -39.3555 L 104.004 -39.3555 C 106.787 -39.3555 107.666 -36.6211 106.006 -34.375 L 98.0957 -23.7305 C 96.5332 -21.6309 93.7988 -21.6797 92.2363 -23.7305 L 84.2773 -34.375 C 82.6172 -36.5723 83.4961 -39.3555 86.2793 -39.3555 L 90.1855 -39.3555 C 87.9395 -46.2891 81.4453 -51.2207 73.5352 -51.2207 C 70.0195 -51.2207 67.041 -50.1953 64.0625 -48.0469 C 61.2305 -46.1914 58.5938 -47.0215 56.9824 -49.2676 Z M 41.0156 -33.9355 L 48.9258 -44.5801 C 50.4883 -46.6797 53.2227 -46.6309 54.7852 -44.5801 L 62.7441 -33.9355 C 64.4043 -31.7383 63.5254 -28.9551 60.7422 -28.9551 L 56.9824 -28.9551 C 59.2285 -22.0215 65.7227 -17.0898 73.584 -17.0898 C 77.1484 -17.0898 80.0781 -18.1152 83.1055 -20.2637 C 85.9375 -22.1191 88.623 -21.2891 90.1367 -19.0918 C 91.6504 -16.8945 91.1621 -13.9648 88.2812 -11.9629 C 84.5215 -9.13086 79.3945 -7.42188 73.584 -7.42188 C 60.2539 -7.42188 49.5605 -16.3086 47.1191 -28.9551 L 43.0176 -28.9551 C 40.2344 -28.9551 39.3555 -31.6895 41.0156 -33.9355 Z"/>
  </g>
  <g id="Semibold-M" transform="matrix(1 0 0 1 1970.15 1126)">
   <path d="M 29.1016 10.9863 L 117.139 10.9863 C 127.979 10.9863 133.789 5.17578 133.789 -5.56641 L 133.789 -56.8848 C 133.789 -67.627 127.979 -73.4375 117.139 -73.4375 L 104.932 -73.4375 C 101.123 -73.4375 99.8047 -74.0234 97.3145 -76.5137 L 93.5059 -80.4688 C 90.8691 -83.1543 88.2324 -84.4238 83.3008 -84.4238 L 62.7441 -84.4238 C 57.8125 -84.4238 55.1758 -83.1543 52.5391 -80.4688 L 48.7305 -76.5137 C 46.2402 -74.0234 44.9219 -73.4375 41.1133 -73.4375 L 29.1016 -73.4375 C 18.2617 -73.4375 12.4512 -67.627 12.4512 -56.8848 L 12.4512 -5.56641 C 12.4512 5.17578 18.2617 10.9863 29.1016 10.9863 Z M 56.2012 -49.2676 C 54.5898 -51.3184 55.127 -54.1016 57.8125 -56.0547 C 61.7676 -59.1309 67.2363 -60.9863 73.1445 -60.9863 C 86.7188 -60.9863 97.5098 -51.9531 99.9023 -38.9648 L 104.199 -38.9648 C 106.787 -38.9648 107.52 -36.4258 106.055 -34.375 L 98.1445 -23.584 C 96.6797 -21.582 94.0918 -21.6309 92.627 -23.584 L 84.668 -34.375 C 83.1543 -36.377 83.9355 -38.9648 86.5234 -38.9648 L 90.9668 -38.9648 C 88.7695 -46.5332 81.6895 -52.0508 73.1445 -52.0508 C 69.1895 -52.0508 65.9668 -50.8789 62.8418 -48.4863 C 60.3027 -46.7773 57.8125 -47.2168 56.2012 -49.2676 Z M 40.1367 -33.6914 L 47.998 -44.4824 C 49.4629 -46.5332 52.0508 -46.4355 53.5156 -44.4824 L 61.4746 -33.6914 C 62.9883 -31.6895 62.207 -29.1016 59.6191 -29.1016 L 55.3711 -29.1016 C 57.5684 -21.5332 64.6484 -16.0156 73.1934 -16.0156 C 77.1973 -16.0156 80.3223 -17.2363 83.5449 -19.5801 C 86.0352 -21.2891 88.5254 -20.8984 90.1367 -18.7988 C 91.748 -16.748 91.2109 -13.9648 88.5254 -12.0117 C 84.5703 -8.93555 79.1016 -7.08008 73.1934 -7.08008 C 59.6191 -7.08008 48.8281 -16.1621 46.4355 -29.1016 L 41.9434 -29.1016 C 39.3555 -29.1016 38.623 -31.6406 40.1367 -33.6914 Z"/>
  </g>
  <g id="Medium-M" transform="matrix(1 0 0 1 1673.73 1126)">
   <path d="M 28.5156 10.4492 L 117.09 10.4492 C 127.637 10.4492 133.203 4.98047 133.203 -5.46875 L 133.203 -56.7383 C 133.203 -67.1875 127.637 -72.6562 117.09 -72.6562 L 104.102 -72.6562 C 100.293 -72.6562 99.0723 -73.291 96.6797 -75.7812 L 92.8223 -79.9316 C 90.2832 -82.6172 87.6953 -83.9355 82.7148 -83.9355 L 62.6465 -83.9355 C 57.666 -83.9355 55.0781 -82.6172 52.5391 -79.9316 L 48.6816 -75.7812 C 46.3379 -73.3398 45.0684 -72.6562 41.2598 -72.6562 L 28.5156 -72.6562 C 17.9688 -72.6562 12.4512 -67.1875 12.4512 -56.7383 L 12.4512 -5.46875 C 12.4512 4.98047 17.9688 10.4492 28.5156 10.4492 Z M 55.5664 -49.3164 C 53.9062 -51.2695 54.4922 -53.9062 56.9824 -55.8105 C 61.084 -59.082 66.8457 -61.084 72.8027 -61.084 C 86.5723 -61.084 97.4121 -51.9043 99.8047 -38.6719 L 104.395 -38.6719 C 106.836 -38.6719 107.471 -36.3281 106.055 -34.375 L 98.1934 -23.4863 C 96.7773 -21.4844 94.3359 -21.582 92.9199 -23.4863 L 85.0098 -34.375 C 83.5449 -36.2793 84.2285 -38.6719 86.6699 -38.6719 L 91.5527 -38.6719 C 89.3555 -46.7285 81.8848 -52.6855 72.8027 -52.6855 C 68.5059 -52.6855 65.1855 -51.3672 61.8652 -48.7793 C 59.6191 -47.2168 57.2754 -47.3145 55.5664 -49.3164 Z M 39.4531 -33.5449 L 47.2656 -44.3848 C 48.7305 -46.3867 51.123 -46.2891 52.5391 -44.3848 L 60.498 -33.5449 C 61.9141 -31.6406 61.2305 -29.248 58.7891 -29.248 L 54.1504 -29.248 C 56.3477 -21.1914 63.8184 -15.2344 72.9004 -15.2344 C 77.1973 -15.2344 80.5176 -16.5527 83.8379 -19.0918 C 86.084 -20.7031 88.4766 -20.5566 90.1367 -18.6035 C 91.7969 -16.6504 91.2598 -13.916 88.7207 -12.0605 C 84.6191 -8.78906 78.9062 -6.83594 72.9004 -6.83594 C 59.1797 -6.83594 48.291 -16.0156 45.8984 -29.248 L 41.1133 -29.248 C 38.6719 -29.248 38.0371 -31.5918 39.4531 -33.5449 Z"/>
  </g>
  <g id="Regular-M" transform="matrix(1 0 0 1 1377.43 1126)">
   <path d="M 27.7832 9.76562 L 117.041 9.76562 C 127.197 9.76562 132.373 4.6875 132.373 -5.37109 L 132.373 -56.4941 C 132.373 -66.5527 127.197 -71.582 117.041 -71.582 L 103.076 -71.582 C 99.2188 -71.582 98.0469 -72.3633 95.8496 -74.8047 L 91.9434 -79.1992 C 89.502 -81.8848 87.0117 -83.3496 81.9824 -83.3496 L 62.5 -83.3496 C 57.4707 -83.3496 54.9805 -81.8848 52.5391 -79.1992 L 48.6328 -74.8047 C 46.4355 -72.4121 45.2148 -71.582 41.4062 -71.582 L 27.7832 -71.582 C 17.5781 -71.582 12.4512 -66.5527 12.4512 -56.4941 L 12.4512 -5.37109 C 12.4512 4.6875 17.5781 9.76562 27.7832 9.76562 Z M 54.7852 -49.3652 C 53.0273 -51.1719 53.6133 -53.7109 55.957 -55.5176 C 60.2051 -59.0332 66.3086 -61.1816 72.4121 -61.1816 C 86.3281 -61.1816 97.3145 -51.8555 99.707 -38.2812 L 104.59 -38.2812 C 106.885 -38.2812 107.324 -36.1328 106.104 -34.375 L 98.291 -23.3398 C 96.875 -21.3867 94.6289 -21.5332 93.3105 -23.3398 L 85.4004 -34.375 C 84.1309 -36.084 84.668 -38.2812 86.9141 -38.2812 L 92.3828 -38.2812 C 90.1855 -46.9238 82.1289 -53.4668 72.4121 -53.4668 C 67.6758 -53.4668 64.1113 -52.0508 60.6445 -49.2188 C 58.6914 -47.7539 56.543 -47.5098 54.7852 -49.3652 Z M 38.5254 -33.3008 L 46.3379 -44.2871 C 47.7539 -46.2402 50 -46.0938 51.2695 -44.2871 L 59.2285 -33.3008 C 60.498 -31.543 59.9609 -29.3945 57.666 -29.3945 L 52.5391 -29.3945 C 54.7363 -20.7031 62.793 -14.1602 72.5098 -14.1602 C 77.2461 -14.1602 80.7617 -15.6738 84.2773 -18.457 C 86.2305 -19.873 88.4277 -20.166 90.1367 -18.3105 C 91.8945 -16.5039 91.3086 -13.916 88.9648 -12.1094 C 84.7168 -8.59375 78.6133 -6.49414 72.5098 -6.49414 C 58.5938 -6.49414 47.6074 -15.8203 45.2148 -29.3945 L 40.0391 -29.3945 C 37.7441 -29.3945 37.3047 -31.543 38.5254 -33.3008 Z"/>
  </g>
  <g id="Light-M" transform="matrix(1 0 0 1 1081.72 1126)">
   <path d="M 26.8555 9.0332 L 115.967 9.0332 C 125.488 9.0332 130.371 4.15039 130.371 -5.22461 L 130.371 -56.4941 C 130.371 -65.918 125.488 -70.8008 115.967 -70.8008 L 101.66 -70.8008 C 97.7539 -70.8008 96.6309 -71.3379 94.2871 -73.9746 L 90.2344 -78.5156 C 87.6953 -81.25 85.4492 -82.4707 80.5664 -82.4707 L 61.5234 -82.4707 C 56.6406 -82.4707 54.3945 -81.25 51.9043 -78.5156 L 47.8027 -73.9746 C 45.5078 -71.3867 44.3359 -70.8008 40.4297 -70.8008 L 26.8555 -70.8008 C 17.334 -70.8008 12.4512 -65.918 12.4512 -56.4941 L 12.4512 -5.22461 C 12.4512 4.15039 17.334 9.0332 26.8555 9.0332 Z M 53.6133 -48.877 C 52.2949 -50.2441 52.6855 -52.1973 54.541 -53.7109 C 58.8867 -57.6172 65.1855 -60.0098 71.4355 -60.0098 C 84.9121 -60.0098 95.6543 -50.8301 97.8516 -37.4023 L 103.076 -37.4023 C 104.932 -37.4023 105.273 -35.7422 104.297 -34.2773 L 97.0215 -23.7305 C 95.8008 -21.9238 93.8477 -21.9727 92.627 -23.7305 L 85.3027 -34.2773 C 84.2285 -35.6934 84.7168 -37.4023 86.5723 -37.4023 L 92.1387 -37.4023 C 90.1367 -46.9727 81.7383 -54.0527 71.4355 -54.0527 C 66.4551 -54.0527 62.3535 -52.4414 58.2031 -48.877 C 56.6406 -47.6562 54.9805 -47.4609 53.6133 -48.877 Z M 38.4277 -32.6172 L 45.6543 -43.1641 C 46.9238 -44.9707 48.877 -44.9219 50.0977 -43.1641 L 57.4219 -32.6172 C 58.4473 -31.2012 57.959 -29.4922 56.1523 -29.4922 L 50.7324 -29.4922 C 52.7832 -19.9219 61.1816 -12.8418 71.4844 -12.8418 C 76.4648 -12.8418 80.5176 -14.502 84.668 -18.0176 C 86.2305 -19.2383 87.9395 -19.4336 89.2578 -18.0176 C 90.5762 -16.6504 90.1855 -14.6484 88.3789 -13.1836 C 83.9844 -9.27734 77.6855 -6.88477 71.4844 -6.88477 C 57.959 -6.88477 47.2656 -16.0645 45.0195 -29.4922 L 39.5996 -29.4922 C 37.7441 -29.4922 37.4023 -31.1523 38.4277 -32.6172 Z"/>
  </g>
  <g id="Thin-M" transform="matrix(1 0 0 1 786.329 1126)">
   <path d="M 25.6348 8.05664 L 114.551 8.05664 C 123.193 8.05664 127.734 3.4668 127.734 -5.0293 L 127.734 -56.543 C 127.734 -65.0879 123.193 -69.6777 114.551 -69.6777 L 99.8047 -69.6777 C 95.752 -69.6777 94.7754 -69.9219 92.1875 -72.8027 L 87.9395 -77.5879 C 85.3027 -80.4688 83.3496 -81.2988 78.7109 -81.2988 L 60.2539 -81.2988 C 55.5664 -81.2988 53.6133 -80.4688 51.0254 -77.5879 L 46.7285 -72.8027 C 44.2871 -70.0195 43.1152 -69.6777 39.1113 -69.6777 L 25.6348 -69.6777 C 16.9922 -69.6777 12.4512 -65.0879 12.4512 -56.543 L 12.4512 -5.0293 C 12.4512 3.4668 16.9922 8.05664 25.6348 8.05664 Z M 52.0996 -48.2422 C 51.3184 -49.0234 51.416 -50.2441 52.6367 -51.3184 C 57.1777 -55.7617 63.7207 -58.4961 70.1172 -58.4961 C 83.0566 -58.4961 93.4082 -49.5117 95.4102 -36.2305 L 101.074 -36.2305 C 102.393 -36.2305 102.588 -35.2539 101.904 -34.1309 L 95.4102 -24.2188 C 94.3359 -22.6074 92.7734 -22.5586 91.6504 -24.2188 L 85.1074 -34.1309 C 84.4238 -35.1562 84.7656 -36.2305 86.0352 -36.2305 L 91.8457 -36.2305 C 90.0391 -47.0215 81.2012 -54.7852 70.1172 -54.7852 C 64.7949 -54.7852 60.0098 -52.9785 54.9805 -48.4375 C 53.9062 -47.5586 52.9785 -47.4121 52.0996 -48.2422 Z M 38.2812 -31.7383 L 44.7266 -41.6504 C 45.8008 -43.2617 47.3633 -43.3105 48.4863 -41.6504 L 55.0293 -31.7383 C 55.7129 -30.7617 55.3711 -29.6387 54.1016 -29.6387 L 48.3398 -29.6387 C 50.1953 -18.8477 59.0332 -11.084 70.1172 -11.084 C 75.3906 -11.084 80.2246 -12.9395 85.2539 -17.4316 C 86.2793 -18.3594 87.2559 -18.457 88.0859 -17.627 C 88.916 -16.8457 88.7695 -15.625 87.5977 -14.5508 C 83.0078 -10.1074 76.5137 -7.42188 70.1172 -7.42188 C 57.1289 -7.42188 46.8262 -16.3574 44.7754 -29.6387 L 39.0625 -29.6387 C 37.7441 -29.6387 37.5488 -30.6152 38.2812 -31.7383 Z"/>
  </g>
  <g id="Ultralight-M" transform="matrix(1 0 0 1 490.278 1126)">
   <path d="M 25 7.56836 L 113.867 7.56836 C 122.07 7.56836 126.416 3.125 126.416 -4.98047 L 126.416 -56.5918 C 126.416 -64.6484 122.07 -69.1406 113.867 -69.1406 L 98.877 -69.1406 C 94.7754 -69.1406 93.8477 -69.2383 91.1621 -72.2168 L 86.7676 -77.0996 C 84.082 -80.0293 82.2754 -80.7129 77.7344 -80.7129 L 59.5703 -80.7129 C 55.0293 -80.7129 53.2227 -80.0293 50.5371 -77.0996 L 46.1914 -72.2168 C 43.6035 -69.3359 42.4805 -69.1406 38.4277 -69.1406 L 25 -69.1406 C 16.7969 -69.1406 12.4512 -64.6484 12.4512 -56.5918 L 12.4512 -4.98047 C 12.4512 3.125 16.7969 7.56836 25 7.56836 Z M 51.3184 -47.9492 C 50.7812 -48.4375 50.7812 -49.2676 51.6602 -50.0977 C 56.2988 -54.834 62.9395 -57.7148 69.4336 -57.7148 C 82.1289 -57.7148 92.2363 -48.877 94.1895 -35.6445 L 100.049 -35.6445 C 101.074 -35.6445 101.221 -35.0098 100.684 -34.082 L 94.5801 -24.5117 C 93.6035 -22.9492 92.2363 -22.9004 91.2109 -24.5117 L 85.0586 -34.082 C 84.5215 -34.8633 84.8145 -35.6445 85.791 -35.6445 L 91.6992 -35.6445 C 89.9902 -47.0215 80.9082 -55.1758 69.4336 -55.1758 C 63.9648 -55.1758 58.7891 -53.2227 53.3203 -48.1934 C 52.5391 -47.4609 51.9531 -47.4121 51.3184 -47.9492 Z M 38.1836 -31.2988 L 44.2383 -40.8691 C 45.2637 -42.4316 46.582 -42.4805 47.6562 -40.8691 L 53.8086 -31.2988 C 54.3457 -30.5176 54.0527 -29.7363 53.0762 -29.7363 L 47.1191 -29.7363 C 48.877 -18.3105 57.9102 -10.2051 69.4336 -10.2051 C 74.8535 -10.2051 80.0781 -12.1582 85.498 -17.1387 C 86.3281 -17.9199 86.9141 -17.9688 87.5 -17.4316 C 88.0371 -16.9434 88.0371 -16.1133 87.207 -15.2344 C 82.5195 -10.5469 75.9277 -7.66602 69.4336 -7.66602 C 56.7383 -7.66602 46.582 -16.5039 44.6777 -29.7363 L 38.7695 -29.7363 C 37.7441 -29.7363 37.6465 -30.3711 38.1836 -31.2988 Z"/>
  </g>
  <g id="Black-S" transform="matrix(1 0 0 1 2874.9 696)">
   <path d="M 25 2.92969 L 91.9922 2.92969 C 101.562 2.92969 107.227 -2.73438 107.227 -12.3047 L 107.227 -52.8809 C 107.227 -62.4512 101.562 -68.1152 91.9922 -68.1152 L 85.2539 -68.1152 C 82.3242 -68.1152 81.1035 -68.3105 78.6621 -70.3613 L 75.7812 -72.8027 C 73.3887 -74.8535 71.1426 -75.4883 67.4805 -75.4883 L 49.5117 -75.4883 C 45.8496 -75.4883 43.6035 -74.8535 41.2109 -72.8027 L 38.3301 -70.3613 C 35.8887 -68.3105 34.668 -68.1152 31.7383 -68.1152 L 25 -68.1152 C 15.4297 -68.1152 9.76562 -62.4512 9.76562 -52.8809 L 9.76562 -12.3047 C 9.76562 -2.73438 15.4297 2.92969 25 2.92969 Z M 46.3379 -46.1426 C 45.3125 -48.0957 45.6543 -50.6836 48.291 -52.3926 C 50.9277 -54.1504 54.1992 -55.1758 58.4961 -55.1758 C 68.5547 -55.1758 76.709 -48.4863 78.6621 -39.2578 L 81.0547 -39.2578 C 83.5938 -39.2578 84.6191 -36.6699 83.0078 -34.5703 L 76.7578 -26.5137 C 75.3906 -24.7559 72.9004 -24.707 71.4844 -26.5137 L 65.1855 -34.5703 C 63.5742 -36.6211 64.5508 -39.2578 67.0898 -39.2578 L 68.9941 -39.2578 C 67.2363 -43.4082 63.3301 -46.0938 58.4961 -46.0938 C 56.6406 -46.0938 54.7363 -45.6055 52.7832 -44.4336 C 49.9023 -42.6758 47.4609 -44.0918 46.3379 -46.1426 Z M 33.9844 -34.7168 L 40.2344 -42.7734 C 41.6016 -44.5312 44.0918 -44.5801 45.5078 -42.7734 L 51.8066 -34.7168 C 53.418 -32.666 52.4414 -30.0293 49.9023 -30.0293 L 47.998 -30.0293 C 49.7559 -25.8789 53.6621 -23.1934 58.4961 -23.1934 C 60.3516 -23.1934 62.2559 -23.6816 64.209 -24.8535 C 67.0898 -26.6113 69.5312 -25.1953 70.6543 -23.1445 C 71.6797 -21.1914 71.3379 -18.6035 68.7012 -16.8945 C 66.0645 -15.1367 62.793 -14.1113 58.4961 -14.1113 C 48.4375 -14.1113 40.2832 -20.8008 38.3301 -30.0293 L 35.9375 -30.0293 C 33.3984 -30.0293 32.373 -32.6172 33.9844 -34.7168 Z"/>
  </g>
  <g id="Heavy-S" transform="matrix(1 0 0 1 2578.49 696)">
   <path d="M 24.3652 2.34375 L 92.041 2.34375 C 101.318 2.34375 106.641 -2.97852 106.641 -12.207 L 106.641 -52.6367 C 106.641 -61.8652 101.318 -67.1875 92.041 -67.1875 L 84.3262 -67.1875 C 81.3965 -67.1875 80.2734 -67.4805 78.0273 -69.4824 L 75.0977 -72.1191 C 72.8027 -74.2188 70.6055 -75 66.8945 -75 L 49.5117 -75 C 45.752 -75 43.5547 -74.2188 41.2598 -72.1191 L 38.3789 -69.4824 C 36.1328 -67.4805 34.9609 -67.1875 32.0312 -67.1875 L 24.3652 -67.1875 C 15.0879 -67.1875 9.76562 -61.8652 9.76562 -52.6367 L 9.76562 -12.207 C 9.76562 -2.97852 15.0879 2.34375 24.3652 2.34375 Z M 45.6543 -46.2402 C 44.5312 -48.0957 44.9219 -50.6348 47.4121 -52.2949 C 50.1953 -54.248 53.8086 -55.4199 58.2031 -55.4199 C 68.5059 -55.4199 76.8066 -48.5352 78.7598 -38.9648 L 81.4453 -38.9648 C 83.8379 -38.9648 84.7168 -36.5234 83.252 -34.5703 L 76.9531 -26.3184 C 75.6348 -24.6094 73.291 -24.6094 71.9727 -26.3184 L 65.625 -34.5703 C 64.1113 -36.5234 64.9902 -38.9648 67.3828 -38.9648 L 69.8242 -38.9648 C 68.0664 -43.6523 63.623 -46.8262 58.2031 -46.8262 C 55.9082 -46.8262 53.8574 -46.2402 51.8066 -44.873 C 49.2188 -43.2617 46.875 -44.2871 45.6543 -46.2402 Z M 33.1055 -34.5703 L 39.4043 -42.8223 C 40.7227 -44.5312 43.0664 -44.5312 44.3848 -42.8223 L 50.7324 -34.5703 C 52.2461 -32.6172 51.3672 -30.1758 48.9746 -30.1758 L 46.582 -30.1758 C 48.3398 -25.4883 52.7832 -22.3145 58.2031 -22.3145 C 60.498 -22.3145 62.5 -22.9004 64.5996 -24.2676 C 67.1875 -25.8789 69.5312 -24.8535 70.752 -22.9004 C 71.875 -21.0449 71.4844 -18.5059 68.9941 -16.8457 C 66.2109 -14.8926 62.5977 -13.7207 58.2031 -13.7207 C 47.9004 -13.7207 39.5996 -20.6055 37.6465 -30.1758 L 34.9121 -30.1758 C 32.5195 -30.1758 31.5918 -32.5684 33.1055 -34.5703 Z"/>
  </g>
  <g id="Bold-S" transform="matrix(1 0 0 1 2282.12 696)">
   <path d="M 23.6328 1.66016 L 92.0898 1.66016 C 101.025 1.66016 105.957 -3.22266 105.957 -12.1094 L 105.957 -52.3926 C 105.957 -61.2793 101.025 -66.1133 92.0898 -66.1133 L 83.3496 -66.1133 C 80.4199 -66.1133 79.2969 -66.5527 77.2949 -68.5059 L 74.3164 -71.3867 C 72.2168 -73.4863 70.0684 -74.4141 66.2109 -74.4141 L 49.4629 -74.4141 C 45.6543 -74.4141 43.5059 -73.4863 41.3574 -71.3867 L 38.4277 -68.5059 C 36.377 -66.5527 35.3027 -66.1133 32.3242 -66.1133 L 23.6328 -66.1133 C 14.6973 -66.1133 9.76562 -61.2793 9.76562 -52.3926 L 9.76562 -12.1094 C 9.76562 -3.22266 14.6973 1.66016 23.6328 1.66016 Z M 44.9219 -46.3379 C 43.6035 -48.1445 44.0918 -50.5371 46.4355 -52.1973 C 49.3652 -54.3457 53.3691 -55.6641 57.8613 -55.6641 C 68.457 -55.6641 76.9043 -48.584 78.8574 -38.6719 L 81.8848 -38.6719 C 84.1309 -38.6719 84.8633 -36.377 83.4961 -34.5703 L 77.1973 -26.123 C 75.9277 -24.4629 73.7305 -24.5117 72.4609 -26.123 L 66.0645 -34.5703 C 64.6973 -36.377 65.4297 -38.6719 67.6758 -38.6719 L 70.752 -38.6719 C 68.9453 -43.8965 63.916 -47.6562 57.8613 -47.6562 C 55.127 -47.6562 52.9297 -46.9238 50.7324 -45.3613 C 48.4375 -43.8965 46.2402 -44.4824 44.9219 -46.3379 Z M 32.1289 -34.375 L 38.4277 -42.8223 C 39.6973 -44.4824 41.8945 -44.4824 43.1641 -42.8223 L 49.5605 -34.375 C 50.9277 -32.5684 50.1953 -30.3223 47.9492 -30.3223 L 45.0195 -30.3223 C 46.7773 -25.0488 51.8555 -21.2891 57.9102 -21.2891 C 60.6445 -21.2891 62.8418 -22.0703 65.0391 -23.584 C 67.334 -25.0488 69.5312 -24.4629 70.8496 -22.6562 C 72.168 -20.8496 71.6797 -18.4082 69.3359 -16.748 C 66.4062 -14.5996 62.4023 -13.3301 57.9102 -13.3301 C 47.3145 -13.3301 38.8672 -20.3613 36.9141 -30.3223 L 33.7402 -30.3223 C 31.4941 -30.3223 30.7617 -32.5684 32.1289 -34.375 Z"/>
  </g>
  <g id="Semibold-S" transform="matrix(1 0 0 1 1985.65 696)">
   <path d="M 23.0957 1.17188 L 92.1387 1.17188 C 100.83 1.17188 105.469 -3.36914 105.469 -12.0117 L 105.469 -52.1973 C 105.469 -60.8398 100.83 -65.3809 92.1387 -65.3809 L 82.666 -65.3809 C 79.6875 -65.3809 78.6621 -65.918 76.7578 -67.8223 L 73.7793 -70.8984 C 71.7773 -72.9492 69.6289 -74.0234 65.7227 -74.0234 L 49.4629 -74.0234 C 45.5566 -74.0234 43.457 -72.9492 41.4062 -70.8984 L 38.4277 -67.8223 C 36.5723 -65.918 35.498 -65.3809 32.5684 -65.3809 L 23.0957 -65.3809 C 14.4043 -65.3809 9.76562 -60.8398 9.76562 -52.1973 L 9.76562 -12.0117 C 9.76562 -3.36914 14.4043 1.17188 23.0957 1.17188 Z M 44.3848 -46.3867 C 43.0176 -48.1445 43.5059 -50.4883 45.752 -52.1484 C 48.7793 -54.4434 53.0762 -55.8105 57.6172 -55.8105 C 68.4082 -55.8105 76.9531 -48.6328 78.9062 -38.4277 L 82.1777 -38.4277 C 84.3262 -38.4277 84.9609 -36.2793 83.6914 -34.5703 L 77.3438 -25.9766 C 76.123 -24.3652 74.0234 -24.4141 72.8516 -25.9766 L 66.4062 -34.5703 C 65.1367 -36.2793 65.7715 -38.4277 67.9199 -38.4277 L 71.3867 -38.4277 C 69.5801 -44.0918 64.1602 -48.2422 57.6172 -48.2422 C 54.5898 -48.2422 52.2461 -47.3633 50 -45.752 C 47.9492 -44.3359 45.8008 -44.6289 44.3848 -46.3867 Z M 31.4453 -34.2285 L 37.793 -42.8711 C 39.0137 -44.4824 41.1133 -44.4336 42.2852 -42.8711 L 48.7305 -34.2285 C 50 -32.5684 49.3652 -30.4199 47.2168 -30.4199 L 43.9453 -30.4199 C 45.752 -24.7559 51.1719 -20.6055 57.7148 -20.6055 C 60.7422 -20.6055 63.0371 -21.4844 65.332 -23.0957 C 67.3828 -24.5117 69.5312 -24.2188 70.9473 -22.4609 C 72.3145 -20.7031 71.8262 -18.3105 69.5801 -16.6992 C 66.5527 -14.4043 62.2559 -13.0371 57.7148 -13.0371 C 46.9238 -13.0371 38.3789 -20.2148 36.4258 -30.4199 L 32.959 -30.4199 C 30.8105 -30.4199 30.1758 -32.5195 31.4453 -34.2285 Z"/>
  </g>
  <g id="Medium-S" transform="matrix(1 0 0 1 1689.11 696)">
   <path d="M 22.7051 0.830078 L 92.1875 0.830078 C 100.684 0.830078 105.127 -3.51562 105.127 -11.9629 L 105.127 -52.0508 C 105.127 -60.498 100.684 -64.8438 92.1875 -64.8438 L 82.1289 -64.8438 C 79.1504 -64.8438 78.1738 -65.4785 76.3672 -67.334 L 73.3887 -70.5078 C 71.4355 -72.5586 69.3359 -73.7305 65.3809 -73.7305 L 49.4629 -73.7305 C 45.5078 -73.7305 43.4082 -72.5586 41.4551 -70.5078 L 38.4766 -67.334 C 36.6699 -65.4785 35.6934 -64.8438 32.7148 -64.8438 L 22.7051 -64.8438 C 14.209 -64.8438 9.76562 -60.498 9.76562 -52.0508 L 9.76562 -11.9629 C 9.76562 -3.51562 14.209 0.830078 22.7051 0.830078 Z M 43.9941 -46.4355 C 42.5293 -48.1445 43.0664 -50.4395 45.2148 -52.0996 C 48.3887 -54.4922 52.832 -55.957 57.4707 -55.957 C 68.4082 -55.957 77.0508 -48.6816 78.9551 -38.2812 L 82.373 -38.2812 C 84.4727 -38.2812 85.0098 -36.2305 83.8379 -34.6191 L 77.4414 -25.8789 C 76.2695 -24.2676 74.2676 -24.3652 73.1445 -25.8789 L 66.6504 -34.6191 C 65.4297 -36.2305 66.0156 -38.2812 68.1152 -38.2812 L 71.875 -38.2812 C 70.0684 -44.1895 64.3555 -48.6816 57.4707 -48.6816 C 54.1992 -48.6816 51.7578 -47.7539 49.4629 -45.9961 C 47.5098 -44.6777 45.459 -44.7266 43.9941 -46.4355 Z M 30.957 -34.1309 L 37.3047 -42.8711 C 38.5254 -44.4824 40.5273 -44.3848 41.6504 -42.8711 L 48.0957 -34.1309 C 49.3164 -32.5195 48.7793 -30.4688 46.6797 -30.4688 L 43.1152 -30.4688 C 44.9219 -24.5605 50.6836 -20.0684 57.5195 -20.0684 C 60.8398 -20.0684 63.1836 -21.0449 65.5762 -22.7539 C 67.4805 -24.0723 69.5801 -24.0234 70.9961 -22.3145 C 72.4609 -20.6055 71.9238 -18.2617 69.7754 -16.6504 C 66.6016 -14.2578 62.1582 -12.793 57.5195 -12.793 C 46.6309 -12.793 37.9883 -20.0684 36.0352 -30.4688 L 32.373 -30.4688 C 30.2734 -30.4688 29.7363 -32.5195 30.957 -34.1309 Z"/>
  </g>
  <g id="Regular-S" transform="matrix(1 0 0 1 1392.62 696)">
   <path d="M 22.2168 0.390625 L 92.2363 0.390625 C 100.537 0.390625 104.688 -3.71094 104.688 -11.9141 L 104.688 -51.8555 C 104.688 -60.0586 100.537 -64.1113 92.2363 -64.1113 L 81.4453 -64.1113 C 78.4668 -64.1113 77.5391 -64.8438 75.8789 -66.6504 L 72.9004 -70.0195 C 70.9961 -72.0703 68.9453 -73.3398 64.9414 -73.3398 L 49.4629 -73.3398 C 45.4102 -73.3398 43.3594 -72.0703 41.5039 -70.0195 L 38.4766 -66.6504 C 36.8652 -64.8438 35.8887 -64.1113 32.959 -64.1113 L 22.2168 -64.1113 C 13.916 -64.1113 9.76562 -60.0586 9.76562 -51.8555 L 9.76562 -11.9141 C 9.76562 -3.71094 13.916 0.390625 22.2168 0.390625 Z M 43.5059 -46.5332 C 41.9434 -48.1445 42.4805 -50.3906 44.5801 -52.002 C 47.8027 -54.5898 52.5391 -56.1035 57.2266 -56.1035 C 68.3594 -56.1035 77.0996 -48.7305 79.0527 -38.0371 L 82.7148 -38.0371 C 84.668 -38.0371 85.1074 -36.1328 84.0332 -34.6191 L 77.5879 -25.7324 C 76.4648 -24.1699 74.5605 -24.2676 73.4863 -25.7324 L 66.9922 -34.6191 C 65.8691 -36.1328 66.3574 -38.0371 68.3105 -38.0371 L 72.5098 -38.0371 C 70.7031 -44.3848 64.5508 -49.2676 57.2266 -49.2676 C 53.6133 -49.2676 51.123 -48.1934 48.7305 -46.3379 C 47.0215 -45.1172 45.0684 -44.873 43.5059 -46.5332 Z M 30.2734 -34.0332 L 36.6699 -42.8711 C 37.8418 -44.4824 39.7461 -44.3359 40.8203 -42.8711 L 47.3145 -34.0332 C 48.4375 -32.5195 47.9492 -30.5664 45.9473 -30.5664 L 42.0898 -30.5664 C 43.8477 -24.2188 50 -19.3848 57.3242 -19.3848 C 60.9375 -19.3848 63.4277 -20.459 65.8691 -22.3145 C 67.5293 -23.5352 69.5801 -23.7793 71.0938 -22.1191 C 72.6074 -20.459 72.0703 -18.1641 70.0195 -16.6016 C 66.748 -14.0625 62.0605 -12.5 57.3242 -12.5 C 46.1914 -12.5 37.4512 -19.9219 35.5469 -30.5664 L 31.5918 -30.5664 C 29.5898 -30.5664 29.1992 -32.5195 30.2734 -34.0332 Z"/>
  </g>
  <g id="Light-S" transform="matrix(1 0 0 1 1096.79 696)">
   <path d="M 21.3867 -0.292969 L 91.2598 -0.292969 C 98.9746 -0.292969 102.93 -4.15039 102.93 -11.7676 L 102.93 -51.9043 C 102.93 -59.5215 98.9746 -63.3789 91.2598 -63.3789 L 80.1758 -63.3789 C 77.1484 -63.3789 76.2695 -63.916 74.4629 -65.918 L 71.3379 -69.3848 C 69.4336 -71.5332 67.5293 -72.5586 63.6719 -72.5586 L 48.584 -72.5586 C 44.7266 -72.5586 42.8711 -71.5332 40.918 -69.3848 L 37.793 -65.918 C 36.0352 -63.916 35.1074 -63.3789 32.0801 -63.3789 L 21.3867 -63.3789 C 13.6719 -63.3789 9.76562 -59.5215 9.76562 -51.9043 L 9.76562 -11.7676 C 9.76562 -4.15039 13.6719 -0.292969 21.3867 -0.292969 Z M 42.4805 -46.0938 C 41.2598 -47.3633 41.6504 -49.1211 43.3105 -50.4395 C 46.6797 -53.3203 51.5137 -55.0781 56.3477 -55.0781 C 67.0898 -55.0781 75.5859 -47.8516 77.3926 -37.2559 L 81.3477 -37.2559 C 82.959 -37.2559 83.3008 -35.791 82.4219 -34.5215 L 76.5137 -26.0742 C 75.4883 -24.6094 73.8281 -24.707 72.8516 -26.0742 L 66.8945 -34.5215 C 65.9668 -35.7422 66.3574 -37.2559 67.9688 -37.2559 L 72.3145 -37.2559 C 70.6543 -44.4336 64.209 -49.7559 56.3477 -49.7559 C 52.5391 -49.7559 49.5605 -48.5352 46.5332 -46.0449 C 45.2148 -45.0195 43.7012 -44.8242 42.4805 -46.0938 Z M 30.1758 -33.4473 L 36.084 -41.8945 C 37.1094 -43.3594 38.7207 -43.2617 39.7461 -41.8945 L 45.7031 -33.4473 C 46.6309 -32.2266 46.1914 -30.6641 44.6289 -30.6641 L 40.4785 -30.6641 C 42.1387 -23.5352 48.584 -18.2129 56.3965 -18.2129 C 60.2051 -18.2129 63.1836 -19.4336 66.2109 -21.9238 C 67.5781 -22.9492 69.0918 -23.0957 70.3125 -21.875 C 71.4844 -20.6055 71.0938 -18.8477 69.4824 -17.5293 C 66.1133 -14.6484 61.2305 -12.8418 56.3965 -12.8418 C 45.6543 -12.8418 37.1582 -20.1172 35.3516 -30.6641 L 31.25 -30.6641 C 29.5898 -30.6641 29.2969 -32.1777 30.1758 -33.4473 Z"/>
  </g>
  <g id="Thin-S" transform="matrix(1 0 0 1 801.246 696)">
   <path d="M 20.3125 -1.12305 L 90.0391 -1.12305 C 96.9727 -1.12305 100.586 -4.78516 100.586 -11.6211 L 100.586 -51.9043 C 100.586 -58.7891 96.9727 -62.4512 90.0391 -62.4512 L 78.5645 -62.4512 C 75.4395 -62.4512 74.6094 -62.6953 72.6562 -64.8926 L 69.3359 -68.6035 C 67.2852 -70.8008 65.7227 -71.5332 62.0117 -71.5332 L 47.4609 -71.5332 C 43.75 -71.5332 42.1875 -70.8008 40.1367 -68.6035 L 36.8164 -64.8926 C 34.9121 -62.7441 34.0332 -62.4512 30.9082 -62.4512 L 20.3125 -62.4512 C 13.3789 -62.4512 9.76562 -58.7891 9.76562 -51.9043 L 9.76562 -11.6211 C 9.76562 -4.78516 13.3789 -1.12305 20.3125 -1.12305 Z M 41.1621 -45.5566 C 40.4297 -46.2891 40.5762 -47.3633 41.6016 -48.291 C 45.166 -51.6602 50.1953 -53.7598 55.1758 -53.7598 C 65.4785 -53.7598 73.6328 -46.6797 75.2441 -36.2305 L 79.5898 -36.2305 C 80.7129 -36.2305 80.9082 -35.3516 80.3223 -34.4238 L 75.0977 -26.5137 C 74.2188 -25.1953 72.9004 -25.1953 72.0215 -26.5137 L 66.748 -34.4238 C 66.1133 -35.2539 66.4551 -36.2305 67.5293 -36.2305 L 72.0703 -36.2305 C 70.5566 -44.4336 63.7207 -50.3906 55.1758 -50.3906 C 51.123 -50.3906 47.4609 -49.0234 43.7012 -45.6543 C 42.7734 -44.9219 41.8945 -44.8242 41.1621 -45.5566 Z M 30.0293 -32.666 L 35.2539 -40.5273 C 36.1328 -41.8457 37.4023 -41.8457 38.3301 -40.5273 L 43.6035 -32.666 C 44.1895 -31.7871 43.8965 -30.8105 42.8223 -30.8105 L 38.3789 -30.8105 C 39.8438 -22.6074 46.6797 -16.6504 55.2246 -16.6504 C 59.2773 -16.6504 62.9395 -18.0664 66.6992 -21.4355 C 67.627 -22.168 68.5059 -22.2656 69.2871 -21.5332 C 70.0195 -20.8008 69.873 -19.6777 68.7988 -18.75 C 65.2344 -15.3809 60.2051 -13.3301 55.2246 -13.3301 C 44.9707 -13.3301 36.7676 -20.3613 35.1562 -30.8105 L 30.7617 -30.8105 C 29.5898 -30.8105 29.4434 -31.7383 30.0293 -32.666 Z"/>
  </g>
  <g id="Ultralight-S" transform="matrix(1 0 0 1 505.121 696)">
   <path d="M 19.7754 -1.5625 L 89.4043 -1.5625 C 95.9473 -1.5625 99.4141 -5.12695 99.4141 -11.5234 L 99.4141 -51.9531 C 99.4141 -58.3984 95.9473 -61.9141 89.4043 -61.9141 L 77.7344 -61.9141 C 74.5117 -61.9141 73.7793 -62.0605 71.6797 -64.3555 L 68.3105 -68.1641 C 66.2109 -70.459 64.7461 -70.9961 61.1816 -70.9961 L 46.875 -70.9961 C 43.2617 -70.9961 41.8457 -70.459 39.7461 -68.1641 L 36.3281 -64.3555 C 34.375 -62.1582 33.4961 -61.9141 30.3223 -61.9141 L 19.7754 -61.9141 C 13.2324 -61.9141 9.76562 -58.3984 9.76562 -51.9531 L 9.76562 -11.5234 C 9.76562 -5.12695 13.2324 -1.5625 19.7754 -1.5625 Z M 40.4785 -45.2637 C 39.9414 -45.752 39.9902 -46.4844 40.7227 -47.2168 C 44.3848 -50.8301 49.5117 -53.0273 54.5898 -53.0273 C 64.5996 -53.0273 72.6074 -46.0938 74.1211 -35.6934 L 78.7109 -35.6934 C 79.5898 -35.6934 79.6875 -35.1074 79.1992 -34.3262 L 74.3652 -26.7578 C 73.5352 -25.5371 72.4609 -25.4883 71.582 -26.7578 L 66.6992 -34.3262 C 66.2109 -35.0098 66.4551 -35.6934 67.2852 -35.6934 L 71.9238 -35.6934 C 70.5078 -44.4824 63.4766 -50.7324 54.5898 -50.7324 C 50.3906 -50.7324 46.3867 -49.2676 42.2363 -45.459 C 41.5527 -44.8242 41.0156 -44.7754 40.4785 -45.2637 Z M 29.9805 -32.2754 L 34.8145 -39.8438 C 35.6445 -41.1133 36.7188 -41.1133 37.5977 -39.8438 L 42.4805 -32.2754 C 42.9688 -31.5918 42.7246 -30.9082 41.8945 -30.9082 L 37.2559 -30.9082 C 38.6719 -22.1191 45.7031 -15.8691 54.5898 -15.8691 C 58.8379 -15.8691 62.793 -17.334 66.9434 -21.1426 C 67.627 -21.7773 68.2129 -21.8262 68.75 -21.3379 C 69.2383 -20.8984 69.1895 -20.1172 68.457 -19.3848 C 64.7949 -15.7715 59.668 -13.5742 54.5898 -13.5742 C 44.5801 -13.5742 36.5723 -20.5078 35.0586 -30.9082 L 30.4688 -30.9082 C 29.5898 -30.9082 29.4922 -31.4941 29.9805 -32.2754 Z"/>
  </g>
 </g>
</svg>
